<?xml version="1.0"?><svg id="Layer_1" fill="#FFFFFF" xmlns="http://www.w3.org/2000/svg" viewBox="0 0 421.61 768"><defs></defs><path class="cls-1" d="M58.78,310.84l2.39-3.84c19.76-31.61,64.37-76.79,119.47-106.45,24.2-13.03,66.61-28.95,68.42-29.63l1.71-.63v-50.48l-3.33.91c-91.12,25.04-141.97,65.67-168.58,95.35-.97,1.09-1.9,2.16-2.94,3.38-22.73,26.92-24.58,46.4-24.58,67.29,0,6.77,1.78,13.53,5.3,20.11l2.15,3.99ZM245.51,126.7v39.94c-9.09,3.44-45.25,17.38-67.36,29.28-53.4,28.75-97.75,72.65-118.84,104.29-1.8-4.46-2.72-8.97-2.72-13.47,0-19.85,1.77-38.36,23.47-64.06.76-.89,1.54-1.78,2.33-2.68l.39-.44c25.77-28.73,74.88-68.08,162.74-92.86Z"></path><path class="cls-1" d="M337.43,526.53l-.86.44-.39.9c-9.32,22.62-36.16,36.17-66.8,33.71-20.09-1.64-39.29-10.15-52.71-23.36l-1.13-.65c-6.48-1.8-12.62-4-18.26-6.53l-3.77-1.69.06,4.13c.57,33.53,34.39,63.52,75.38,66.84,2.56.21,5.11.31,7.6.31,20.15,0,38.33-6.53,51.19-18.38,10.98-10.12,17.03-23.53,17.03-37.76v-21.88l-3.87,2.09c-1.14.62-2.28,1.23-3.47,1.82ZM213.5,542.45c14.24,13.77,34.43,22.64,55.47,24.35,31.3,2.58,59.2-10.83,70.56-33.58v11.27c0,12.93-5.3,24.66-15.34,33.9-13.37,12.32-33.34,18.39-54.8,16.7-36.81-2.99-67.19-28.07-70.29-57.58,4.58,1.87,9.42,3.53,14.4,4.94Z"></path><path class="cls-1" d="M373.87,430.58v1.33c0,34-47.28,63.67-105.41,66.13-13.02.54-25.82-.32-38.34-2.58l-2.87.04c-22.57,0-44.04-2.73-63.82-8.12l-4.74-1.29,1.57,4.67c9.79,28.89,51.19,49.07,100.67,49.07h.02c2.56,0,5.15-.06,7.75-.16,60.89-2.59,110.43-34.6,110.43-71.38v-37.71h-5.26ZM373.87,452.52v15.77c0,34-47.28,63.67-105.39,66.13-2.56.1-5.07.16-7.58.16-43.94,0-81.87-16.65-93.72-40.8,18.79,4.63,38.99,6.98,60.11,6.98l2.39-.08c12.52,2.32,25.66,3.19,39.02,2.62,47.96-2.04,90.71-23,105.18-50.78Z"></path><path class="cls-1" d="M96.24,338.68l-1.15,2.33,2.33,1.17c8.5,4.27,18.01,8.06,28.24,11.25l1.49.47,1.12-1.09c25.5-24.56,61.84-44.86,99.7-55.68,51.15-14.6,96.96-10.3,119.57,11.24l2.46,2.33,1.63-2.95c3.85-6.89,5.81-14,5.81-21.16,0-12.44,0-50.31-74.11-50.97-17.95.11-37.06,3.02-56.8,8.65-58.41,16.69-110.78,54.63-130.3,94.42ZM283.34,240.86c68.86.62,68.86,34.68,68.86,45.87,0,5.16-1.22,10.37-3.63,15.51-24.67-20.77-71.18-24.69-122.03-10.16-38.07,10.87-74.75,31.22-100.79,55.87-8.47-2.71-16.4-5.84-23.61-9.31,19.76-37.63,70.1-73.42,125.83-89.34,19.29-5.5,37.93-8.35,55.37-8.45Z"></path><path class="cls-1" d="M366.31,416.48v-42.6h-5.26v1.33c0,38.69-60.02,70.17-133.79,70.17-47.57,0-92.01-13.54-116.17-35.5l-.65-.37c-6.51-2.42-12.71-5.12-18.43-7.99l-3.81-1.92v16.87c0,41.58,62.38,75.41,139.06,75.41s139.05-33.83,139.05-75.41ZM93.45,408.07c4.63,2.19,9.55,4.26,14.68,6.19,24.96,22.44,70.58,36.38,119.12,36.38,62.46,0,117.05-22.72,133.79-54.8v20.65c0,38.69-60.02,70.16-133.79,70.16s-133.81-31.48-133.81-70.16v-8.41Z"></path><path class="cls-1" d="M366.31,334.55v-49.15h-5.26v1.33c0,45.08-70.27,81.76-156.66,81.76s-156.66-36.68-156.66-81.76v-1.33h-5.26v49.15c0,47.98,72.64,87.01,161.92,87.01s161.91-39.03,161.91-87.01ZM47.73,308.82c18.4,37.98,82.47,64.91,156.66,64.91s138.25-26.93,156.66-64.91v25.73c0,45.08-70.27,81.76-156.66,81.76s-156.66-36.68-156.66-81.76v-25.73Z"></path><path class="cls-1" d="M195.44,565.18l-.2-1.22-5.02.42v29.09c.44,23.91,31.32,42.1,57.15,53.15l3.66,1.57v-37.16l-1.79-.59c-32.04-10.84-50.65-26.49-53.8-45.26ZM195.48,580.19c8.3,14.09,25.53,25.96,50.3,34.62v25.4c-23.18-10.36-49.93-26.66-50.3-46.78v-13.24Z"></path></svg>