<?xml version="1.0"?><svg id="Layer_1" fill="#FFFFFF" xmlns="http://www.w3.org/2000/svg" viewBox="0 0 1366 768"><defs></defs><path class="cls-1" d="M858.79,336.54c-.9-4.42-2.04-7.94-3.47-10.77-1.42-2.76-3.11-5.26-5.16-7.55-3.89-4.07-9.63-7.04-17.53-9.12-7.28-1.92-17.8-2.86-32.23-2.86-10.41,0-19.78.56-27.88,1.65-8.78,1.18-14.46,2.57-17.92,4.39-2.82,1.53-5.39,3.96-7.68,7.24-2.39,3.54-3.58,5.55-3.58,8.77,0,2.86,1.3,5.4,3.53,6.96,2.11,1.49,4.73,1.91,7.16,1.13l8.36-1.1c3.36-.42,6.95-.87,10.77-1.3,3.74-.44,7.65-.78,11.59-1.03,3.94-.25,7.77-.38,11.38-.38,10.06,0,19.9.44,24.67,1.35,4.85.91,7.24,2.27,8.38,3.3,1.54,1.56,2.73,4.37,3.44,8.09.88,4.61,1.34,11.17,1.37,20.91-9.55.18-21.08.54-29.81,1.05-9.06.54-17.41,1.23-24.79,2.03-7.51.81-13.92,1.77-19.11,2.87-5.81,1.23-9.63,2.48-12.06,3.92l-.37.23c-4.23,2.96-7.33,7.79-9.46,14.74-1.86,6.11-2.78,13.43-2.78,21.76,0,7.69.99,14.6,2.96,20.48,2.12,6.32,5.19,11.15,9.08,14.34,1.96,1.73,4.38,3.31,7.19,4.76,2.95,1.5,6.46,2.68,10.8,3.59,4,.86,8.91,1.51,14.59,1.96,5.59.47,12.39.69,20.18.69,10.88,0,20.79-.42,29.5-1.21,8.63-.79,16.21-1.66,22.52-2.55,2.26-.33,4.08-.98,5.54-2.01,1.61-1.12,3.52-3.39,3.52-7.75v-70.95c0-9.41-.24-15.4-.69-21.72-.46-6.51-1.12-11.72-1.99-15.91ZM833.98,392.45v26.97c0,6.28-.36,8.42-.51,9.04-.09.38-.2.56-.2.56l-.4.33c-.54.25-2.45.92-7.73,1.61-5.73.76-15.7,1.14-25.02,1.14s-17.03-.49-21.77-1.44c-5.5-1.15-7.48-2.49-8.05-3.04l-.53-.42c-.57-.41-1.67-1.52-2.83-4.45-1.03-2.62-1.57-6.23-1.57-10.73,0-6.17.62-9.33,1.15-10.92.66-1.96,1.34-3.01,1.83-3.54.56-.24,2.36-.88,6.81-1.61,4.79-.75,10.53-1.42,17.05-1.91,6.55-.53,13.5-.93,20.61-1.18,6.87-.25,15.52-.39,21.17-.4Z"></path><path class="cls-1" d="M996.97,318.94c-4.73-4.54-11.08-7.87-18.78-9.89-7.33-1.9-15.43-2.81-29.02-2.81-10.95,0-21.87.49-32.45,1.47-10.38.95-19.1,1.89-25.82,2.78l-.22.04c-4.97.83-8.19,4.43-8.19,9.11v129.77c0,5.43,3.68,9.21,8.96,9.21h9.77c5.12,0,8.69-3.78,8.69-9.21v-109.55c0-1.64.02-2.98.09-4.02.39-.05,3.24-.12,3.84-.17l.43-.06c3.79-.65,8.61-1.17,14.4-1.49,5.92-.35,12.65-.54,20-.54,8.36,0,15.07.56,19.37,1.66,3.65.93,6.33,2.29,7.95,4.02,1.58,1.68,2.82,4.26,3.7,7.64.68,2.66,1.52,8.06,1.52,18.67v80.95c0,7.35,2.3,12.1,9.5,12.1h8.92c5.27,0,8.96-3.78,8.96-9.21v-88.29c0-10.93-.82-19.29-2.44-25.56-1.74-6.72-4.82-12.28-9.17-16.62Z"></path><path class="cls-1" d="M1301.09,354.97c-.78-6.35-1.85-11.9-3.17-16.48-1.39-4.77-3.08-8.83-5-12.07-1.91-3.26-4.1-6.06-6.46-8.34l-.23-.2c-4.44-3.87-10.14-6.83-16.96-8.79-6.62-1.91-15-2.85-25.54-2.85-11.12,0-20.58,1.19-28.13,3.53-7.81,2.43-14.15,5.77-18.83,9.92-6.28,5.42-11.27,13.71-14.86,24.63-3.43,10.47-5.19,23.62-5.19,39.11,0,8.6.4,16.26,1.18,22.8.79,6.65,1.95,12.51,3.49,17.39,1.52,4.97,3.35,9.3,5.39,12.83,2.12,3.65,4.55,5.81,7.32,8.32,4.78,4.62,11.35,8.15,19.48,10.49,7.9,2.27,17.88,3.36,30.66,3.36,9.68,0,18.29-.54,25.57-1.63,10.32-1.53,13.85-2.98,15.58-4,3.32-1.72,6.06-4.47,8.19-8.16,2.17-3.71,3.23-7.02,3.23-10.12s-1.38-4.7-3.82-6.19c-1.79-1.07-3.84-1.39-5.86-.91-4.32.84-10.12,1.73-17.21,2.68-7.04.91-14.75,1.39-22.93,1.39s-17.24-.63-22.98-1.84c-5.16-1.1-9.07-2.82-11.56-5.08-2.75-2.5-4.78-6.33-6.04-11.41-1.41-5.62-2.16-12.29-2.17-19.79.77-.09,3.34-.12,4.91-.12h80.4c5.37,0,8.3-2.37,9.85-4.34,1.98-2.59,2.91-6.39,2.91-11.97,0-8.44-.4-15.92-1.19-22.17ZM1273.83,365.33c0,.98-.07,1.68-.16,2.12-.3.03-.68.07-1.15.09-2.1.09-4.86.12-8.36.12h-55.26c-1.45,0-3.9-.05-4.65-.11.08-1.98.26-4.13.65-6.47.44-2.86,1.1-5.72,1.92-8.51.8-2.68,1.84-5.28,3.1-7.75,1.03-2.09,2.28-3.78,3.69-5.01l.2-.19c4.86-4.69,15.32-7.06,28.2-7.06,16.5,0,22.32,3.15,24.19,4.91,2.1,2.07,3.89,5.47,5.34,10.08,1.54,4.95,2.31,10.94,2.31,17.79Z"></path><path class="cls-1" d="M1032.74,434.85c2.1,6.9,5.14,11.7,9.28,14.62l.38.25c2.38,1.45,6.14,2.68,11.82,3.89,5.06,1.07,11.38,2.05,18.73,2.84,7.24.8,15.4,1.47,24.3,2.01,8.55.5,19.24.18,28.6.36-.04,9.65.17,37.61-.68,42.19-.71,3.69-1.86,6.46-3.37,8.03-1.14,1-3.47,2.38-8.19,3.28-2.66.49-8.46.85-12.78,1.08h-1.53c-11.42,0-21.82-.48-30.84-1.42-9.1-.94-16.76-1.86-22.77-2.7-2.42-.44-4.85.09-6.71,1.43-2.21,1.56-3.48,4.09-3.48,6.91,0,1.44.33,3.01,1,4.92.6,1.66,1.43,3.31,2.46,4.93.89,1.39,1.83,2.73,2.78,3.96,1.37,1.81,3.03,3.2,4.82,4.13,2.24,1.25,6.37,2.84,18.04,4.22,8.36.98,19.94,1.48,34.44,1.48,1.19,0,7.12-.14,8.33-.41,9.59-.33,14.57-1.23,20.08-2.68,7.72-2.07,13.36-5.02,17.15-9.05,2.01-2.24,3.7-4.74,5.09-7.47,1.37-2.8,2.5-6.3,3.38-10.7.87-4.14,1.48-10.67,1.94-17.12.47-6.28.71-32.89.71-42.22v-131.97c0-4.31-1.89-6.57-3.5-7.7-1.39-1-3.16-1.66-5.4-1.98-6.16-.88-13.6-1.72-22.07-2.51-8.56-.81-20.57-1.21-31.21-1.21-7.64,0-14.26.22-19.79.68-5.57.46-10.39,1.12-14.29,1.96-4.24.9-7.71,2.07-10.57,3.56-2.77,1.44-5.14,3.01-7.06,4.71-3.84,3.17-6.8,7.96-8.9,14.23-1.95,5.83-2.95,12.65-2.95,20.29,0,5.67-.83,39.8,0,62.66.41,10.5,2.19,18.6,2.75,20.52ZM1058.67,341.84c1.14-2.93,2.22-4.02,2.77-4.41l.53-.44c.6-.53,2.49-1.88,7.89-3.01,4.65-.94,13.9-1.43,23.42-1.43s18.95.38,24.61,1.12c5.18.68,8.73.68,9.26.92l.43.33s.07.18.15.56c.14.62.5,2.74.5,8.96v88.34c-5.55,0-11.02.53-17.77.29-6.98-.26-18.51-.65-24.93-1.17-5.86-.47-11.06-1.03-15.5-1.72h-2.07c-6.68-1-10.56,0-10.56-9.96-.15-1.61-.26-3.61-.26-6.16,0-4.46.51-69.64,1.56-72.23Z"></path><path class="cls-1" d="M711.88,330.04c-2.2-6.88-5.08-11.71-9.17-14.63l-.39-.24c-2.35-1.44-6.06-2.66-11.7-3.89-5.03-1.07-11.26-2.06-18.54-2.85-7.18-.79-16.99-1.47-25.77-1.99-8.47-.51-19.87-.85-29.14-1.05,0-1.75.02-3.47.06-5.14h-.22v-39.13c0-3.54-.67-6.28-1.99-8.35-1.85-2.84-5.02-4.28-9.46-4.28h-8.61c-5.12,0-8.67,3.79-8.67,9.22v188.3c0,3.52.65,6.28,1.99,8.35,1.83,2.85,5.01,4.28,9.46,4.28h8.61c5.1,0,8.67-3.78,8.67-9.21l.16-118.01c5.46.02,14.06.15,20.74.4,6.9.25,13.65.64,20.03,1.16,6.12.48,13.12,1.12,17.8,1.84,5.94.98,8.56,3.82,9.52,7.51.49,1.84.96,4.54.96,8.47,0,2.24-.37,95.21-.37,95.21,0,3.52.64,6.28,1.98,8.35,1.85,2.85,5.01,4.28,9.46,4.28h8.64c5.08,0,8.31-3.78,8.31-9.21v-94.87s-.13-17.43-2.38-24.51Z"></path><path class="cls-1" d="M480.77,340.09c2.41-2.24,6.33-4.04,11.73-5.34,5.97-1.46,15.91-2.19,25.87-2.19,7.9,0,18.2.33,23.72,1,5.7.7,10.79,1.29,15.33,1.82,2.77.45,5.39-.37,7.29-2.25,1.66-1.66,2.55-3.88,2.55-6.37,0-2.63-.89-4.95-2.7-8.33-1.81-3.4-4.26-6.04-7.28-7.84-3.63-2.26-14.44-4.34-40.5-4.34-14.16,0-25.17,1-33.58,3.46-8.6,2.52-15.51,6.02-20.55,10.44-6.5,5.71-11.77,13.81-15.68,24.05-3.85,10-5.79,23.15-5.79,39.04,0,17.48,1.61,30.58,4.92,40.06,3.38,9.7,8,17,13.69,21.74,5.03,4.59,11.6,8.09,19.6,10.43,7.81,2.28,18.15,3.4,31.64,3.4,10.16,0,22.31-.45,29.31-1.36,7.69-1.01,12.78-2.33,15.97-4.18l.24-.15c2.75-1.74,5.14-4.31,7.31-7.85,2.3-3.78,3.38-6.81,3.38-9.59,0-5.85-4.13-8.53-7.95-8.53-.56,0-1.18.07-1.77.19-4.47.69-9.94,1.46-16.21,2.31-6.06.85-16.97,1.26-25.58,1.26-9.49,0-19.06-.68-24.89-2.06-5.28-1.25-9.22-3.02-11.74-5.3-1.47-1.34-2.82-3-4.01-4.96-1.21-1.98-2.25-4.52-3.15-7.61-.96-3.22-1.68-7.21-2.16-11.9-.5-4.84-.73-10.64-.73-17.23,0-11.34,1.14-20.48,3.45-27.14,2.19-6.33,4.94-11.65,8.25-14.68Z"></path><path class="cls-1" d="M80.02,310.84l2.39-3.84c19.76-31.61,64.37-76.79,119.47-106.45,24.2-13.03,66.61-28.95,68.42-29.63l1.71-.63v-50.48l-3.33.91c-91.12,25.04-141.97,65.67-168.58,95.35-.97,1.09-1.9,2.16-2.94,3.38-22.73,26.92-24.58,46.4-24.58,67.29,0,6.77,1.78,13.53,5.3,20.11l2.15,3.99ZM266.75,126.7v39.94c-9.09,3.44-45.25,17.38-67.36,29.28-53.4,28.75-97.75,72.65-118.84,104.29-1.8-4.46-2.72-8.97-2.72-13.47,0-19.85,1.77-38.36,23.47-64.06.76-.89,1.54-1.78,2.33-2.68l.39-.44c25.77-28.73,74.88-68.08,162.74-92.86Z"></path><path class="cls-1" d="M358.67,526.53l-.86.44-.39.9c-9.32,22.62-36.16,36.17-66.8,33.71-20.09-1.64-39.29-10.15-52.71-23.36l-1.13-.65c-6.48-1.8-12.62-4-18.26-6.53l-3.77-1.69.06,4.13c.57,33.53,34.39,63.52,75.38,66.84,2.56.21,5.11.31,7.6.31,20.15,0,38.33-6.53,51.19-18.38,10.98-10.12,17.03-23.53,17.03-37.76v-21.88l-3.87,2.09c-1.14.62-2.28,1.23-3.47,1.82ZM234.74,542.45c14.24,13.77,34.43,22.64,55.47,24.35,31.3,2.58,59.2-10.83,70.56-33.58v11.27c0,12.93-5.3,24.66-15.34,33.9-13.37,12.32-33.34,18.39-54.8,16.7-36.81-2.99-67.19-28.07-70.29-57.58,4.58,1.87,9.42,3.53,14.4,4.94Z"></path><path class="cls-1" d="M395.11,430.58v1.33c0,34-47.28,63.67-105.41,66.13-13.02.54-25.82-.32-38.34-2.58l-2.87.04c-22.57,0-44.04-2.73-63.82-8.12l-4.74-1.29,1.57,4.67c9.79,28.89,51.19,49.07,100.67,49.07h.02c2.56,0,5.15-.06,7.75-.16,60.89-2.59,110.43-34.6,110.43-71.38v-37.71h-5.26ZM395.11,452.52v15.77c0,34-47.28,63.67-105.39,66.13-2.56.1-5.07.16-7.58.16-43.94,0-81.87-16.65-93.72-40.8,18.79,4.63,38.99,6.98,60.11,6.98l2.39-.08c12.52,2.32,25.66,3.19,39.02,2.62,47.96-2.04,90.71-23,105.18-50.78Z"></path><path class="cls-1" d="M117.47,338.68l-1.15,2.33,2.33,1.17c8.5,4.27,18.01,8.06,28.24,11.25l1.49.47,1.12-1.09c25.5-24.56,61.84-44.86,99.7-55.68,51.15-14.6,96.96-10.3,119.57,11.24l2.46,2.33,1.63-2.95c3.85-6.89,5.81-14,5.81-21.16,0-12.44,0-50.31-74.11-50.97-17.95.11-37.06,3.02-56.8,8.65-58.41,16.69-110.78,54.63-130.3,94.42ZM304.57,240.86c68.86.62,68.86,34.68,68.86,45.87,0,5.16-1.22,10.37-3.63,15.51-24.67-20.77-71.18-24.69-122.03-10.16-38.07,10.87-74.75,31.22-100.79,55.87-8.47-2.71-16.4-5.84-23.61-9.31,19.76-37.63,70.1-73.42,125.83-89.34,19.29-5.5,37.93-8.35,55.37-8.45Z"></path><path class="cls-1" d="M387.55,416.48v-42.6h-5.26v1.33c0,38.69-60.02,70.17-133.79,70.17-47.57,0-92.01-13.54-116.17-35.5l-.65-.37c-6.51-2.42-12.71-5.12-18.43-7.99l-3.81-1.92v16.87c0,41.58,62.38,75.41,139.06,75.41s139.05-33.83,139.05-75.41ZM114.69,408.07c4.63,2.19,9.55,4.26,14.68,6.19,24.96,22.44,70.58,36.38,119.12,36.38,62.46,0,117.05-22.72,133.79-54.8v20.65c0,38.69-60.02,70.16-133.79,70.16s-133.81-31.48-133.81-70.16v-8.41Z"></path><path class="cls-1" d="M387.55,334.55v-49.15h-5.26v1.33c0,45.08-70.27,81.76-156.66,81.76s-156.66-36.68-156.66-81.76v-1.33h-5.26v49.15c0,47.98,72.64,87.01,161.92,87.01s161.91-39.03,161.91-87.01ZM68.97,308.82c18.4,37.98,82.47,64.91,156.66,64.91s138.25-26.93,156.66-64.91v25.73c0,45.08-70.27,81.76-156.66,81.76s-156.66-36.68-156.66-81.76v-25.73Z"></path><path class="cls-1" d="M216.68,565.18l-.2-1.22-5.02.42v29.09c.44,23.91,31.32,42.1,57.15,53.15l3.66,1.57v-37.16l-1.79-.59c-32.04-10.84-50.65-26.49-53.8-45.26ZM216.72,580.19c8.3,14.09,25.53,25.96,50.3,34.62v25.4c-23.18-10.36-49.93-26.66-50.3-46.78v-13.24Z"></path></svg>