<?xml version="1.0"?><svg id="Layer_1" fill="#2E2E33" xmlns="http://www.w3.org/2000/svg" viewBox="242 228 881 313"><defs></defs><path class="cls-1" d="M670.06,325.66c-.9-4.42-2.04-7.94-3.47-10.77-1.42-2.76-3.11-5.26-5.16-7.55-3.89-4.07-9.63-7.04-17.53-9.12-7.28-1.92-17.8-2.86-32.23-2.86-10.41,0-19.78.56-27.88,1.65-8.78,1.18-14.46,2.57-17.92,4.39-2.82,1.53-5.39,3.96-7.68,7.24-2.39,3.54-3.58,5.55-3.58,8.77,0,2.86,1.3,5.4,3.53,6.96,2.11,1.49,4.73,1.91,7.16,1.13l8.36-1.1c3.36-.42,6.95-.87,10.77-1.3,3.74-.44,7.65-.78,11.59-1.03,3.94-.25,7.77-.38,11.38-.38,10.06,0,19.9.44,24.67,1.35,4.85.91,7.24,2.27,8.38,3.3,1.54,1.56,2.73,4.37,3.44,8.09.88,4.61,1.34,11.17,1.37,20.91-9.55.18-21.08.54-29.81,1.05-9.06.54-17.41,1.23-24.79,2.03-7.51.81-13.92,1.77-19.11,2.87-5.81,1.23-9.63,2.48-12.06,3.92l-.37.23c-4.23,2.96-7.33,7.79-9.46,14.74-1.86,6.11-2.78,13.43-2.78,21.76,0,7.69.99,14.6,2.96,20.48,2.12,6.32,5.19,11.15,9.08,14.34,1.96,1.73,4.38,3.31,7.19,4.76,2.95,1.5,6.46,2.68,10.8,3.59,4,.86,8.91,1.51,14.59,1.96,5.59.47,12.39.69,20.18.69,10.88,0,20.79-.42,29.5-1.21,8.63-.79,16.21-1.66,22.52-2.55,2.26-.33,4.08-.98,5.54-2.01,1.61-1.12,3.52-3.39,3.52-7.75v-70.95c0-9.41-.24-15.4-.69-21.72-.46-6.51-1.12-11.72-1.99-15.91ZM645.25,381.57v26.97c0,6.28-.36,8.42-.51,9.04-.09.38-.2.56-.2.56l-.4.33c-.54.25-2.45.92-7.73,1.61-5.73.76-15.7,1.14-25.02,1.14s-17.03-.49-21.77-1.44c-5.5-1.15-7.48-2.49-8.05-3.04l-.53-.42c-.57-.41-1.67-1.52-2.83-4.45-1.03-2.62-1.57-6.23-1.57-10.73,0-6.17.62-9.33,1.15-10.92.66-1.96,1.34-3.01,1.83-3.54.56-.24,2.36-.88,6.81-1.61,4.79-.75,10.53-1.42,17.05-1.91,6.55-.53,13.5-.93,20.61-1.18,6.87-.25,15.52-.39,21.17-.4Z"></path><path class="cls-1" d="M808.24,308.06c-4.73-4.54-11.08-7.87-18.78-9.89-7.33-1.9-15.43-2.81-29.02-2.81-10.95,0-21.87.49-32.45,1.47-10.38.95-19.1,1.89-25.82,2.78l-.22.04c-4.97.83-8.19,4.43-8.19,9.11v129.77c0,5.43,3.68,9.21,8.96,9.21h9.77c5.12,0,8.69-3.78,8.69-9.21v-109.55c0-1.64.02-2.98.09-4.02.39-.05,3.24-.12,3.84-.17l.43-.06c3.79-.65,8.61-1.17,14.4-1.49,5.92-.35,12.65-.54,20-.54,8.36,0,15.07.56,19.37,1.66,3.65.93,6.33,2.29,7.95,4.02,1.58,1.68,2.82,4.26,3.7,7.64.68,2.66,1.52,8.06,1.52,18.67v80.95c0,7.35,2.3,12.1,9.5,12.1h8.92c5.27,0,8.96-3.78,8.96-9.21v-88.29c0-10.93-.82-19.29-2.44-25.56-1.74-6.72-4.82-12.28-9.17-16.62Z"></path><path class="cls-1" d="M1112.36,344.09c-.78-6.35-1.85-11.9-3.17-16.48-1.39-4.77-3.08-8.83-5-12.07-1.91-3.26-4.1-6.06-6.46-8.34l-.23-.2c-4.44-3.87-10.14-6.83-16.96-8.79-6.62-1.91-15-2.85-25.54-2.85-11.12,0-20.58,1.19-28.13,3.53-7.81,2.43-14.15,5.77-18.83,9.92-6.28,5.42-11.27,13.71-14.86,24.63-3.43,10.47-5.19,23.62-5.19,39.11,0,8.6.4,16.26,1.18,22.8.79,6.65,1.95,12.51,3.49,17.39,1.52,4.97,3.35,9.3,5.39,12.83,2.12,3.65,4.55,5.81,7.32,8.32,4.78,4.62,11.35,8.15,19.48,10.49,7.9,2.27,17.88,3.36,30.66,3.36,9.68,0,18.29-.54,25.57-1.63,10.32-1.53,13.85-2.98,15.58-4,3.32-1.72,6.06-4.47,8.19-8.16,2.17-3.71,3.23-7.02,3.23-10.12s-1.38-4.7-3.82-6.19c-1.79-1.07-3.84-1.39-5.86-.91-4.32.84-10.12,1.73-17.21,2.68-7.04.91-14.75,1.39-22.93,1.39s-17.24-.63-22.98-1.84c-5.16-1.1-9.07-2.82-11.56-5.08-2.75-2.5-4.78-6.33-6.04-11.41-1.41-5.62-2.16-12.29-2.17-19.79.77-.09,3.34-.12,4.91-.12h80.4c5.37,0,8.3-2.37,9.85-4.34,1.98-2.59,2.91-6.39,2.91-11.97,0-8.44-.4-15.92-1.19-22.17ZM1085.1,354.45c0,.98-.07,1.68-.16,2.12-.3.03-.68.07-1.15.09-2.1.09-4.86.12-8.36.12h-55.26c-1.45,0-3.9-.05-4.65-.11.08-1.98.26-4.13.65-6.47.44-2.86,1.1-5.72,1.92-8.51.8-2.68,1.84-5.28,3.1-7.75,1.03-2.09,2.28-3.78,3.69-5.01l.2-.19c4.86-4.69,15.32-7.06,28.2-7.06,16.5,0,22.32,3.15,24.19,4.91,2.1,2.07,3.89,5.47,5.34,10.08,1.54,4.95,2.31,10.94,2.31,17.79Z"></path><path class="cls-1" d="M844.01,423.97c2.1,6.9,5.14,11.7,9.28,14.62l.38.25c2.38,1.45,6.14,2.68,11.82,3.89,5.06,1.07,11.38,2.05,18.73,2.84,7.24.8,15.4,1.47,24.3,2.01,8.55.5,19.24.18,28.6.36-.04,9.65.17,37.61-.68,42.19-.71,3.69-1.86,6.46-3.37,8.03-1.14,1-3.47,2.38-8.19,3.28-2.66.49-8.46.85-12.78,1.08h-1.53c-11.42,0-21.82-.48-30.84-1.42-9.1-.94-16.76-1.86-22.77-2.7-2.42-.44-4.85.09-6.71,1.43-2.21,1.56-3.48,4.09-3.48,6.91,0,1.44.33,3.01,1,4.92.6,1.66,1.43,3.31,2.46,4.93.89,1.39,1.83,2.73,2.78,3.96,1.37,1.81,3.03,3.2,4.82,4.13,2.24,1.25,6.37,2.84,18.04,4.22,8.36.98,19.94,1.48,34.44,1.48,1.19,0,7.12-.14,8.33-.41,9.59-.33,14.57-1.23,20.08-2.68,7.72-2.07,13.36-5.02,17.15-9.05,2.01-2.24,3.7-4.74,5.09-7.47,1.37-2.8,2.5-6.3,3.38-10.7.87-4.14,1.48-10.67,1.94-17.12.47-6.28.71-32.89.71-42.22v-131.97c0-4.31-1.89-6.57-3.5-7.7-1.39-1-3.16-1.66-5.4-1.98-6.16-.88-13.6-1.72-22.07-2.51-8.56-.81-20.57-1.21-31.21-1.21-7.64,0-14.26.22-19.79.68-5.57.46-10.39,1.12-14.29,1.96-4.24.9-7.71,2.07-10.57,3.56-2.77,1.44-5.14,3.01-7.06,4.71-3.84,3.17-6.8,7.96-8.9,14.23-1.95,5.83-2.95,12.65-2.95,20.29,0,5.67-.83,39.8,0,62.66.41,10.5,2.19,18.6,2.75,20.52ZM869.94,330.96c1.14-2.93,2.22-4.02,2.77-4.41l.53-.44c.6-.53,2.49-1.88,7.89-3.01,4.65-.94,13.9-1.43,23.42-1.43s18.95.38,24.61,1.12c5.18.68,8.73.68,9.26.92l.43.33s.07.18.15.56c.14.62.5,2.74.5,8.96v88.34c-5.55,0-11.02.53-17.77.29-6.98-.26-18.51-.65-24.93-1.17-5.86-.47-11.06-1.03-15.5-1.72h-2.07c-6.68-1-10.56,0-10.56-9.96-.15-1.61-.26-3.61-.26-6.16,0-4.46.51-69.64,1.56-72.23Z"></path><path class="cls-1" d="M523.15,319.16c-2.2-6.88-5.08-11.71-9.17-14.63l-.39-.24c-2.35-1.44-6.06-2.66-11.7-3.89-5.03-1.07-11.26-2.06-18.54-2.85-7.18-.79-16.99-1.47-25.77-1.99-8.47-.51-19.87-.85-29.14-1.05,0-1.75.02-3.47.06-5.14h-.22v-39.13c0-3.54-.67-6.28-1.99-8.35-1.85-2.84-5.02-4.28-9.46-4.28h-8.61c-5.12,0-8.67,3.79-8.67,9.22v188.3c0,3.52.65,6.28,1.99,8.35,1.83,2.85,5.01,4.28,9.46,4.28h8.61c5.1,0,8.67-3.78,8.67-9.21l.16-118.01c5.46.02,14.06.15,20.74.4,6.9.25,13.65.64,20.03,1.16,6.12.48,13.12,1.12,17.8,1.84,5.94.98,8.56,3.82,9.52,7.51.49,1.84.96,4.54.96,8.47,0,2.24-.37,95.21-.37,95.21,0,3.52.64,6.28,1.98,8.35,1.85,2.85,5.01,4.28,9.46,4.28h8.64c5.08,0,8.31-3.78,8.31-9.21v-94.87s-.13-17.43-2.38-24.51Z"></path><path class="cls-1" d="M292.04,329.21c2.41-2.24,6.33-4.04,11.73-5.34,5.97-1.46,15.91-2.19,25.87-2.19,7.9,0,18.2.33,23.72,1,5.7.7,10.79,1.29,15.33,1.82,2.77.45,5.39-.37,7.29-2.25,1.66-1.66,2.55-3.88,2.55-6.37,0-2.63-.89-4.95-2.7-8.33-1.81-3.4-4.26-6.04-7.28-7.84-3.63-2.26-14.44-4.34-40.5-4.34-14.16,0-25.17,1-33.58,3.46-8.6,2.52-15.51,6.02-20.55,10.44-6.5,5.71-11.77,13.81-15.68,24.05-3.85,10-5.79,23.15-5.79,39.04,0,17.48,1.61,30.58,4.92,40.06,3.38,9.7,8,17,13.69,21.74,5.03,4.59,11.6,8.09,19.6,10.43,7.81,2.28,18.15,3.4,31.64,3.4,10.16,0,22.31-.45,29.31-1.36,7.69-1.01,12.78-2.33,15.97-4.18l.24-.15c2.75-1.74,5.14-4.31,7.31-7.85,2.3-3.78,3.38-6.81,3.38-9.59,0-5.85-4.13-8.53-7.95-8.53-.56,0-1.18.07-1.77.19-4.47.69-9.94,1.46-16.21,2.31-6.06.85-16.97,1.26-25.58,1.26-9.49,0-19.06-.68-24.89-2.06-5.28-1.25-9.22-3.02-11.74-5.3-1.47-1.34-2.82-3-4.01-4.96-1.21-1.98-2.25-4.52-3.15-7.61-.96-3.22-1.68-7.21-2.16-11.9-.5-4.84-.73-10.64-.73-17.23,0-11.34,1.14-20.48,3.45-27.14,2.19-6.33,4.94-11.65,8.25-14.68Z"></path></svg>